<svg data-v-423bf9ae="" xmlns="http://www.w3.org/2000/svg" viewBox="0 0 480.5475985979247 60" class="font"><!----><!----><!----><g data-v-423bf9ae="" id="c97470bd-996b-47d5-8b04-80b16902a287" fill="black" transform="matrix(6.085192321084519,0,0,6.085192321084519,-4.442185621645251,-18.377281170446572)"><path d="M0.73 5.77C0.73 9.07 5.71 8.20 5.71 10.65C5.71 11.59 4.87 12.31 3.89 12.31C3.07 12.31 1.47 11.83 1.44 11.47L1.36 10.15C1.34 9.97 1.27 9.91 1.09 9.91L1.02 9.91C0.81 9.91 0.81 10.00 0.81 10.12C0.81 10.32 0.92 11.66 0.95 12.17C0.97 12.38 2.23 12.85 3.77 12.85C5.33 12.85 6.94 11.87 6.94 10.11C6.94 6.79 1.97 7.87 1.97 5.32C1.97 4.31 2.76 3.56 3.79 3.56C4.82 3.56 5.91 4.58 5.91 4.89C5.91 5.01 5.87 5.73 5.87 5.78C5.87 5.92 5.91 5.99 6.17 5.99C6.41 5.99 6.43 5.94 6.43 5.75C6.43 5.04 6.51 3.68 6.51 3.53C6.51 3.30 6.47 3.29 6.20 3.29C5.98 3.29 5.96 3.32 5.95 3.53C5.95 3.61 5.94 3.78 5.89 3.78C5.84 3.78 5.75 3.74 5.68 3.68C4.89 3.14 4.27 3.08 3.77 3.08C2.24 3.08 0.73 4.17 0.73 5.77ZM7.49 3.63C7.49 3.77 7.49 3.84 7.57 3.84C7.64 3.84 8.37 3.74 8.40 3.74C8.46 3.74 8.47 3.72 8.48 3.93C8.55 5.19 8.60 7.85 8.60 9.63C8.60 10.60 8.60 12.21 8.54 12.21L7.94 12.21C7.77 12.21 7.73 12.29 7.73 12.43C7.73 12.59 7.73 12.67 7.92 12.67C8.34 12.67 8.81 12.64 9.16 12.64C9.56 12.64 10.09 12.67 10.36 12.67C10.54 12.67 10.54 12.56 10.54 12.43C10.54 12.29 10.54 12.21 10.36 12.21L9.72 12.21C9.66 12.21 9.66 11.54 9.66 10.98C9.66 10.84 9.65 8.29 9.65 8.29C9.65 8.26 9.65 8.22 9.84 8.12C10.12 7.98 10.53 7.83 11.07 7.83C11.98 7.83 12.38 8.62 12.38 9.63C12.38 11.09 12.38 12.21 12.31 12.21L11.63 12.21C11.48 12.21 11.47 12.29 11.47 12.43C11.47 12.59 11.47 12.67 11.66 12.67C12.08 12.67 12.54 12.64 12.89 12.64C13.30 12.64 13.66 12.67 13.93 12.67C14.11 12.67 14.13 12.57 14.13 12.43C14.13 12.29 14.11 12.21 13.93 12.21L13.45 12.21C13.41 12.21 13.41 11.76 13.41 11.27L13.41 10.08C13.41 8.57 13.23 7.17 11.62 7.17C11.02 7.17 10.18 7.49 9.74 7.73C9.63 7.80 9.65 7.78 9.65 7.64C9.65 5.70 9.76 3.47 9.76 3.30C9.76 3.16 9.76 3.11 9.65 3.11C9.55 3.11 8.39 3.25 7.59 3.36C7.50 3.37 7.49 3.40 7.49 3.63ZM14.88 11.61C14.88 12.35 15.41 12.84 16.30 12.84C16.91 12.84 17.63 12.45 18.03 12.19C18.13 12.14 18.14 12.11 18.19 12.24C18.27 12.46 18.33 12.88 18.77 12.88C18.87 12.88 19.11 12.74 19.36 12.56C19.70 12.31 20.08 12.04 20.08 12.01C20.08 11.93 19.92 11.73 19.85 11.73C19.82 11.73 19.40 12.08 19.29 12.08C19.25 12.08 19.04 12.01 19.04 11.70C19.04 11.40 19.12 9.56 19.12 8.85C19.12 7.73 18.69 6.97 17.25 6.97C16.32 6.97 15.08 7.67 15.08 8.85C15.08 9.00 15.13 9.11 15.20 9.11C15.27 9.11 15.78 8.86 16.02 8.69C16.10 8.64 16.11 8.50 16.11 8.41C16.11 7.84 16.14 7.63 16.52 7.48C16.65 7.42 16.81 7.39 16.95 7.39C18.12 7.39 18.13 8.32 18.13 9.31C18.13 9.44 18.13 9.48 18.06 9.49C16.67 9.73 14.88 10.32 14.88 11.61ZM15.95 11.21C15.95 10.58 16.58 10.22 17.23 10.01C17.63 9.88 18.05 9.80 18.09 9.80C18.12 9.80 18.13 9.81 18.13 9.91L18.13 11.75C18.13 11.84 17.35 12.14 16.81 12.14C16.25 12.14 15.95 11.65 15.95 11.21ZM20.45 7.60C20.45 7.66 20.50 7.67 20.57 7.67C20.62 7.67 21.21 7.66 21.25 7.66C21.35 7.66 21.38 8.05 21.38 8.69L21.38 10.89C21.38 11.83 21.59 12.80 22.95 12.80C23.98 12.80 25.17 12.15 25.20 12.15C25.24 12.15 25.21 12.87 25.30 12.87C25.35 12.87 26.49 12.70 26.96 12.63C27.15 12.60 27.15 12.59 27.15 12.38C27.15 12.29 27.15 12.19 27.06 12.19C27.02 12.19 26.47 12.28 26.45 12.28C26.26 12.28 26.22 12.19 26.22 11.49C26.22 10.63 26.24 7.28 26.24 7.28C26.24 7.20 26.25 7.15 26.10 7.15C26.03 7.15 25.19 7.20 24.47 7.22C24.35 7.22 24.30 7.25 24.29 7.35C24.28 7.39 24.26 7.56 24.26 7.60C24.26 7.64 24.32 7.64 24.37 7.64C24.42 7.64 24.96 7.62 25.07 7.62C25.16 7.62 25.19 9.87 25.19 10.18L25.19 11.83C25.19 11.93 24.43 12.01 23.95 12.01C23.13 12.01 22.44 11.86 22.44 11.12L22.44 7.31C22.44 7.22 22.44 7.18 22.36 7.18C22.29 7.18 21.07 7.22 20.76 7.24C20.59 7.25 20.55 7.24 20.51 7.36C20.48 7.43 20.45 7.55 20.45 7.60ZM27.52 3.51C27.52 3.64 27.54 3.65 27.68 3.65C27.80 3.65 28.43 3.61 28.48 3.61C28.57 3.61 28.59 6.80 28.59 9.30L28.59 12.00C28.59 12.21 28.59 12.21 28.48 12.21L27.86 12.21C27.69 12.21 27.69 12.29 27.69 12.43C27.69 12.59 27.69 12.67 27.87 12.67C28.03 12.67 28.59 12.64 29.05 12.64C29.46 12.64 29.78 12.67 30.04 12.67C30.21 12.67 30.23 12.57 30.23 12.47C30.23 12.29 30.23 12.21 30.04 12.21L29.60 12.21C29.57 12.21 29.57 11.77 29.57 11.30L29.57 10.12C29.57 9.95 29.60 9.94 29.68 9.94L29.85 9.94C29.97 9.94 29.99 9.95 30.16 10.16L31.70 12.07C31.77 12.17 31.79 12.21 31.65 12.21L31.47 12.21C31.30 12.21 31.29 12.29 31.29 12.43C31.29 12.59 31.29 12.67 31.47 12.67C31.67 12.67 32.12 12.64 32.47 12.64C32.82 12.64 33.24 12.67 33.43 12.67C33.63 12.67 33.63 12.59 33.63 12.43C33.63 12.26 33.63 12.21 33.43 12.21L33.26 12.21C33.15 12.21 33.12 12.21 32.98 12.04L30.87 9.59C30.76 9.45 30.73 9.48 30.87 9.31C31.16 8.96 32.26 7.60 32.38 7.60L32.83 7.60C33.00 7.60 33.01 7.52 33.01 7.38C33.01 7.21 32.97 7.14 32.84 7.14C32.63 7.14 32.34 7.17 31.98 7.17C31.61 7.17 31.25 7.14 31.11 7.14C30.93 7.14 30.91 7.24 30.91 7.38C30.91 7.52 30.91 7.60 31.09 7.60L31.43 7.60C31.57 7.60 31.63 7.62 31.53 7.76C31.21 8.29 30.83 8.82 30.44 9.34C30.34 9.48 30.24 9.63 30.06 9.63L29.75 9.63C29.58 9.63 29.57 9.62 29.57 9.49L29.72 3.25C29.72 3.08 29.74 3.02 29.61 3.02C29.53 3.02 28.22 3.12 27.69 3.16C27.54 3.18 27.52 3.25 27.52 3.36ZM34.17 11.61C34.17 12.35 34.71 12.84 35.59 12.84C36.20 12.84 36.92 12.45 37.32 12.19C37.42 12.14 37.44 12.11 37.48 12.24C37.56 12.46 37.62 12.88 38.07 12.88C38.16 12.88 38.40 12.74 38.65 12.56C38.99 12.31 39.37 12.04 39.37 12.01C39.37 11.93 39.21 11.73 39.14 11.73C39.12 11.73 38.70 12.08 38.58 12.08C38.54 12.08 38.33 12.01 38.33 11.70C38.33 11.40 38.42 9.56 38.42 8.85C38.42 7.73 37.98 6.97 36.54 6.97C35.62 6.97 34.37 7.67 34.37 8.85C34.37 9.00 34.43 9.11 34.50 9.11C34.57 9.11 35.07 8.86 35.31 8.69C35.39 8.64 35.41 8.50 35.41 8.41C35.41 7.84 35.43 7.63 35.81 7.48C35.94 7.42 36.11 7.39 36.25 7.39C37.41 7.39 37.42 8.32 37.42 9.31C37.42 9.44 37.42 9.48 37.35 9.49C35.97 9.73 34.17 10.32 34.17 11.61ZM35.24 11.21C35.24 10.58 35.87 10.22 36.53 10.01C36.92 9.88 37.34 9.80 37.38 9.80C37.41 9.80 37.42 9.81 37.42 9.91L37.42 11.75C37.42 11.84 36.64 12.14 36.11 12.14C35.55 12.14 35.24 11.65 35.24 11.21ZM40.03 7.78C40.03 7.87 40.05 7.92 40.14 7.92L40.49 7.92C40.61 7.92 40.64 8.19 40.64 8.74C40.64 9.14 40.61 10.77 40.61 11.77C40.61 12.21 40.85 12.77 41.66 12.77C42.15 12.77 43.11 12.36 43.40 12.15C43.47 12.10 43.47 12.08 43.47 12.01C43.47 11.93 43.46 11.80 43.40 11.80C43.26 11.80 42.80 12.03 42.25 12.03C41.65 12.03 41.62 11.63 41.62 11.20L41.62 8.51C41.62 8.15 41.62 7.91 41.68 7.91L43.01 7.91C43.13 7.91 43.18 7.85 43.23 7.66C43.25 7.59 43.27 7.49 43.27 7.43C43.27 7.36 43.25 7.35 43.18 7.35L41.73 7.35C41.62 7.35 41.62 7.35 41.62 7.25C41.62 7.03 41.71 5.95 41.71 5.91C41.71 5.81 41.66 5.74 41.55 5.74C41.48 5.74 41.43 5.78 41.37 5.87L40.10 7.64C40.05 7.69 40.03 7.73 40.03 7.78ZM47.17 5.77C47.17 9.07 52.15 8.20 52.15 10.65C52.15 11.59 51.31 12.31 50.33 12.31C49.50 12.31 47.91 11.83 47.88 11.47L47.80 10.15C47.78 9.97 47.71 9.91 47.53 9.91L47.46 9.91C47.25 9.91 47.25 10.00 47.25 10.12C47.25 10.32 47.36 11.66 47.39 12.17C47.40 12.38 48.66 12.85 50.20 12.85C51.77 12.85 53.38 11.87 53.38 10.11C53.38 6.79 48.41 7.87 48.41 5.32C48.41 4.31 49.20 3.56 50.23 3.56C51.25 3.56 52.35 4.58 52.35 4.89C52.35 5.01 52.30 5.73 52.30 5.78C52.30 5.92 52.35 5.99 52.61 5.99C52.85 5.99 52.86 5.94 52.86 5.75C52.86 5.04 52.95 3.68 52.95 3.53C52.95 3.30 52.91 3.29 52.64 3.29C52.42 3.29 52.40 3.32 52.39 3.53C52.39 3.61 52.37 3.78 52.33 3.78C52.28 3.78 52.19 3.74 52.12 3.68C51.32 3.14 50.71 3.08 50.20 3.08C48.68 3.08 47.17 4.17 47.17 5.77ZM54.21 10.04C54.21 11.58 55.37 12.85 56.90 12.85C58.66 12.85 59.70 11.58 59.70 9.84C59.70 8.29 58.67 7.01 57.12 7.01C55.37 7.01 54.21 8.37 54.21 10.04ZM55.29 10.23C55.29 8.69 55.68 7.46 56.95 7.46C58.09 7.46 58.60 8.74 58.60 9.74C58.60 10.92 58.37 12.40 56.90 12.40C55.85 12.40 55.29 11.27 55.29 10.23ZM60.17 3.63C60.17 3.77 60.17 3.84 60.26 3.84C60.33 3.84 61.05 3.74 61.08 3.74C61.14 3.74 61.15 3.72 61.17 3.93C61.24 5.19 61.28 7.85 61.28 9.63C61.28 10.60 61.28 12.21 61.22 12.21L60.62 12.21C60.45 12.21 60.41 12.29 60.41 12.43C60.41 12.59 60.41 12.67 60.61 12.67C61.03 12.67 61.49 12.64 61.84 12.64C62.24 12.64 62.78 12.67 63.04 12.67C63.22 12.67 63.22 12.56 63.22 12.43C63.22 12.29 63.22 12.21 63.04 12.21L62.40 12.21C62.34 12.21 62.34 11.54 62.34 10.98C62.34 10.84 62.33 8.29 62.33 8.29C62.33 8.26 62.33 8.22 62.52 8.12C62.80 7.98 63.21 7.83 63.76 7.83C64.67 7.83 65.06 8.62 65.06 9.63C65.06 11.09 65.06 12.21 64.99 12.21L64.32 12.21C64.16 12.21 64.15 12.29 64.15 12.43C64.15 12.59 64.15 12.67 64.34 12.67C64.76 12.67 65.23 12.64 65.58 12.64C65.98 12.64 66.35 12.67 66.61 12.67C66.79 12.67 66.81 12.57 66.81 12.43C66.81 12.29 66.79 12.21 66.61 12.21L66.14 12.21C66.09 12.21 66.09 11.76 66.09 11.27L66.09 10.08C66.09 8.57 65.91 7.17 64.30 7.17C63.70 7.17 62.86 7.49 62.43 7.73C62.31 7.80 62.33 7.78 62.33 7.64C62.33 5.70 62.44 3.47 62.44 3.30C62.44 3.16 62.44 3.11 62.33 3.11C62.23 3.11 61.07 3.25 60.27 3.36C60.19 3.37 60.17 3.40 60.17 3.63ZM67.56 11.61C67.56 12.35 68.10 12.84 68.98 12.84C69.59 12.84 70.31 12.45 70.71 12.19C70.81 12.14 70.83 12.11 70.87 12.24C70.95 12.46 71.01 12.88 71.46 12.88C71.55 12.88 71.79 12.74 72.04 12.56C72.38 12.31 72.76 12.04 72.76 12.01C72.76 11.93 72.60 11.73 72.53 11.73C72.51 11.73 72.09 12.08 71.97 12.08C71.93 12.08 71.72 12.01 71.72 11.70C71.72 11.40 71.81 9.56 71.81 8.85C71.81 7.73 71.37 6.97 69.93 6.97C69.01 6.97 67.76 7.67 67.76 8.85C67.76 9.00 67.82 9.11 67.89 9.11C67.96 9.11 68.46 8.86 68.70 8.69C68.78 8.64 68.80 8.50 68.80 8.41C68.80 7.84 68.82 7.63 69.20 7.48C69.33 7.42 69.50 7.39 69.64 7.39C70.80 7.39 70.81 8.32 70.81 9.31C70.81 9.44 70.81 9.48 70.74 9.49C69.36 9.73 67.56 10.32 67.56 11.61ZM68.63 11.21C68.63 10.58 69.26 10.22 69.92 10.01C70.31 9.88 70.73 9.80 70.77 9.80C70.80 9.80 70.81 9.81 70.81 9.91L70.81 11.75C70.81 11.84 70.03 12.14 69.50 12.14C68.94 12.14 68.63 11.65 68.63 11.21ZM73.26 7.64C73.26 7.70 73.33 7.70 73.39 7.70C73.44 7.70 74.02 7.67 74.06 7.67C74.16 7.67 74.21 7.66 74.23 7.85C74.27 8.88 74.28 9.87 74.28 10.85C74.28 11.14 74.28 12.21 74.24 12.21L73.54 12.21C73.35 12.21 73.33 12.29 73.33 12.43C73.33 12.59 73.33 12.67 73.50 12.67C73.77 12.67 74.44 12.64 74.79 12.64C75.14 12.64 75.73 12.67 75.99 12.67C76.15 12.67 76.16 12.57 76.16 12.43C76.16 12.28 76.16 12.21 75.99 12.21L75.39 12.21C75.32 12.21 75.32 10.04 75.32 9.70L75.32 7.32C75.32 7.24 75.32 7.20 75.18 7.20C75.11 7.20 74.37 7.24 73.60 7.27C73.43 7.27 73.39 7.27 73.33 7.41C73.29 7.52 73.26 7.60 73.26 7.64ZM74.02 4.86C74.02 5.28 74.33 5.47 74.63 5.47C75.04 5.47 75.53 5.15 75.53 4.65C75.53 4.21 75.21 4.05 74.90 4.05C74.55 4.05 74.02 4.33 74.02 4.86ZM76.69 3.58C76.69 3.65 76.71 3.65 76.76 3.65C76.82 3.65 77.41 3.60 77.49 3.60C77.56 3.60 77.62 3.57 77.64 3.82C77.76 5.07 77.80 10.37 77.80 11.06C77.80 11.44 77.80 12.21 77.73 12.21L77.01 12.21C76.86 12.21 76.85 12.29 76.85 12.43C76.85 12.59 76.86 12.67 77.03 12.67C77.45 12.67 78.02 12.64 78.37 12.64C78.78 12.64 79.27 12.67 79.53 12.67C79.70 12.67 79.70 12.60 79.70 12.43C79.70 12.28 79.70 12.21 79.53 12.21L78.93 12.21C78.88 12.21 78.86 12.05 78.86 11.70C78.86 8.89 78.79 7.62 78.78 3.32C78.78 3.16 78.78 3.07 78.64 3.07C78.55 3.07 77.46 3.15 76.90 3.19C76.79 3.21 76.76 3.19 76.73 3.32C76.71 3.42 76.69 3.57 76.69 3.58Z"></path></g><!----><!----></svg>